<svg xmlns="http://www.w3.org/2000/svg" viewBox="0 0 400 500" fill="none">
  <rect width="400" height="500" fill="#f4c94a"/>
  <circle cx="200" cy="240" r="150" fill="#d3a828"/>
  <path d="M120 190c-16-42-6-82 20-92 18-7 32 9 35 32M280 190c16-42 6-82-20-92-18-7-32 9-35 32"
        stroke="#fbf8ef" stroke-width="6" stroke-linecap="round" fill="none"/>
  <path d="M200 130c58 0 98 44 98 100 0 30-13 53-36 69 4 14 10 25 19 35-19 5-36 2-50-8-9 3-20 4-31 4-58 0-98-44-98-100s40-100 98-100z"
        fill="#fbf8ef"/>
  <circle cx="171" cy="210" r="6.5" fill="#13232d"/>
  <circle cx="229" cy="210" r="6.5" fill="#13232d"/>
  <path d="M186 240c4.5 8 9 12.5 14 12.5s9.5-4.5 14-12.5" stroke="#13232d" stroke-width="4.5" stroke-linecap="round" fill="none"/>
  <path d="M200 240v16" stroke="#13232d" stroke-width="4.5" stroke-linecap="round"/>
</svg>
